<svg width="70" height="70" viewBox="0 0 70 70" fill="none" xmlns="http://www.w3.org/2000/svg">
<rect width="70" height="70" rx="4" fill="#9F2122"/>
<g clip-path="url(#clip0_1159_1904)">
<path d="M42.9167 41.3333H46.0833V22.3333H30.25V25.5H42.9167V41.3333ZM42.9167 44.5V49.25C42.9167 50.124 42.2042 50.8333 41.3223 50.8333H22.3444C22.1356 50.8345 21.9286 50.7945 21.7353 50.7155C21.5421 50.6365 21.3663 50.5201 21.2181 50.373C21.07 50.2259 20.9523 50.0509 20.872 49.8582C20.7917 49.6655 20.7502 49.4588 20.75 49.25L20.7548 27.0833C20.7548 26.2093 21.4673 25.5 22.3492 25.5H27.0833V20.75C27.0833 20.33 27.2501 19.9273 27.5471 19.6304C27.844 19.3334 28.2467 19.1666 28.6667 19.1666H47.6667C48.0866 19.1666 48.4893 19.3334 48.7863 19.6304C49.0832 19.9273 49.25 20.33 49.25 20.75V42.9166C49.25 43.3366 49.0832 43.7393 48.7863 44.0362C48.4893 44.3331 48.0866 44.5 47.6667 44.5H42.9167ZM23.9214 28.6666L23.9167 47.6666H39.75V28.6666H23.9214ZM27.0833 41.3333H34.2083C34.4183 41.3333 34.6197 41.2499 34.7681 41.1014C34.9166 40.953 35 40.7516 35 40.5416C35 40.3317 34.9166 40.1303 34.7681 39.9818C34.6197 39.8334 34.4183 39.75 34.2083 39.75H29.4583C28.4085 39.75 27.4017 39.3329 26.6594 38.5906C25.917 37.8483 25.5 36.8414 25.5 35.7916C25.5 34.7418 25.917 33.735 26.6594 32.9927C27.4017 32.2503 28.4085 31.8333 29.4583 31.8333H30.25V30.25H33.4167V31.8333H36.5833V35H29.4583C29.2484 35 29.047 35.0834 28.8985 35.2318C28.7501 35.3803 28.6667 35.5817 28.6667 35.7916C28.6667 36.0016 28.7501 36.203 28.8985 36.3514C29.047 36.4999 29.2484 36.5833 29.4583 36.5833H34.2083C35.2581 36.5833 36.265 37.0003 37.0073 37.7427C37.7496 38.485 38.1667 39.4918 38.1667 40.5416C38.1667 41.5914 37.7496 42.5983 37.0073 43.3406C36.265 44.0829 35.2581 44.5 34.2083 44.5H33.4167V46.0833H30.25V44.5H27.0833V41.3333Z" fill="white"/>
</g>
<defs>
<clipPath id="clip0_1159_1904">
<rect width="38" height="38" fill="white" transform="translate(16 16)"/>
</clipPath>
</defs>
</svg>
